<svg width="50" height="48" xmlns="http://www.w3.org/2000/svg" xmlns:xlink="http://www.w3.org/1999/xlink" xml:space="preserve" overflow="hidden"><g transform="translate(-472 -29)"><path d="M41 27.4555 41 10.5 9 10.5 9 8.45C8.9975 6.2695 7.2305 4.50248 5.05 4.5L5 4.5C4.72386 4.5 4.5 4.72386 4.5 5 4.5 5.27615 4.72386 5.5 5 5.5L5.05 5.5C6.67855 5.50165 7.99835 6.82145 8 8.45L8 33.5C8.0023 35.3509 9.44535 36.8801 11.293 36.9895 9.7656 37.9323 9.2917 39.9347 10.2345 41.4622 11.1772 42.9896 13.1797 43.4635 14.7071 42.5207 16.2345 41.5779 16.7084 39.5755 15.7656 38.048 15.5035 37.6233 15.1471 37.2648 14.724 37L33.274 37C31.7528 37.9527 31.2919 39.9582 32.2445 41.4795 33.1973 43.0006 35.2028 43.4616 36.724 42.5089 38.2453 41.5561 38.7061 39.5507 37.7534 38.0294 37.4925 37.6129 37.1405 37.2609 36.724 37L40.5 37C40.7761 37 41 36.7761 41 36.5 41 36.2239 40.7761 36 40.5 36L11.5 36C10.12 35.9983 9.00165 34.8801 9 33.5L9 30.4555ZM35 42C33.7574 42 32.75 40.9926 32.75 39.75 32.75 38.5074 33.7574 37.5 35 37.5 36.2426 37.5 37.25 38.5074 37.25 39.75 37.2486 40.9921 36.2421 41.9986 35 42ZM13 42C11.7573 42 10.75 40.9926 10.75 39.75 10.75 38.5074 11.7573 37.5 13 37.5 14.2427 37.5 15.25 38.5074 15.25 39.75 15.2486 40.9921 14.2421 41.9986 13 42ZM9 17.5 16 17.5 16 22.5 9 22.5ZM32 22.5 25 22.5 25 17.5 32 17.5ZM33 17.5 40 17.5 40 22.5 33 22.5ZM25 23.5 32 23.5 32 27.2945 25 27.95ZM24 28.0445 17 28.7 17 23.5 24 23.5ZM25 16.5 25 11.5 32 11.5 32 16.5ZM24 16.5 17 16.5 17 11.5 24 11.5ZM24 17.5 24 22.5 17 22.5 17 17.5ZM9 23.5 16 23.5 16 28.7945 9 29.45ZM33 27.2 33 23.5 40 23.5 40 26.5445ZM40 16.5 33 16.5 33 11.5 40 11.5ZM16 11.5 16 16.5 9 16.5 9 11.5Z" transform="matrix(1.04167 0 0 1 472 29)"/></g></svg>