<svg width="40" height="40" xmlns="http://www.w3.org/2000/svg" xmlns:xlink="http://www.w3.org/1999/xlink" xml:space="preserve" overflow="hidden"><g transform="translate(-38 -468)"><path d="M14.3691 28.7083C14.3691 22.0004 19.8069 16.5625 26.5149 16.5625 33.2229 16.5625 38.6607 22.0004 38.6607 28.7083 38.6607 35.4163 33.2229 40.8542 26.5149 40.8542 19.8152 40.8345 14.3888 35.4081 14.3691 28.7083ZM27.6191 13.3052 27.6191 11.0417 29.8274 11.0417C30.4372 11.0417 30.9316 10.5473 30.9316 9.9375 30.9316 9.32767 30.4372 8.83333 29.8274 8.83333L23.2024 8.83333C22.5926 8.83333 22.0982 9.32767 22.0982 9.9375 22.0982 10.5473 22.5926 11.0417 23.2024 11.0417L25.4107 11.0417 25.4107 13.3052C16.9003 13.9096 10.4911 21.2987 11.0956 29.8092 11.3553 33.466 12.9069 36.9112 15.4732 39.5292L13.3753 43.6698C13.0992 44.2135 13.3161 44.8781 13.8598 45.1542 13.864 45.1563 13.8681 45.1584 13.8722 45.1604 14.0309 45.2233 14.1986 45.2606 14.3691 45.2708 14.7851 45.2607 15.1641 45.0291 15.3628 44.6635L17.1847 41.0198C22.697 45.2163 30.3328 45.2163 35.8451 41.0198L37.667 44.6635C37.8657 45.0291 38.2447 45.2607 38.6607 45.2708 38.8312 45.2606 38.9989 45.2233 39.1576 45.1604 39.7047 44.8911 39.93 44.2293 39.6607 43.6822 39.6586 43.678 39.6566 43.6739 39.6545 43.6698L37.5566 39.5292C43.5292 33.4364 43.4318 23.6556 37.3391 17.6829 34.7211 15.1166 31.2759 13.5649 27.6191 13.3052Z" transform="matrix(1.0566 0 0 1 38 468)"/><path d="M25.4107 27.6042 17.6816 27.6042 17.6816 29.8125 26.5149 29.8125C27.124 29.8107 27.6173 29.3174 27.6191 28.7083L27.6191 19.875 25.4107 19.875Z" transform="matrix(1.0566 0 0 1 38 468)"/><path d="M44.292 13.3604 39.7097 8.77812C38.8609 7.90915 37.4683 7.8928 36.5994 8.74158 36.5871 8.75361 36.5749 8.76581 36.5628 8.77812L33.692 11.5938 41.4212 19.3229 44.292 16.4521C45.1201 15.5879 45.1201 14.2246 44.292 13.3604Z" transform="matrix(1.0566 0 0 1 38 468)"/><path d="M19.3378 11.5938 16.467 8.72292C15.6182 7.85394 14.2256 7.8376 13.3567 8.68637 13.3443 8.6984 13.3321 8.7106 13.3201 8.72292L8.73782 13.3052C7.86884 14.154 7.8525 15.5466 8.70127 16.4155 8.71331 16.4279 8.72551 16.44 8.73782 16.4521L11.6087 19.3229Z" transform="matrix(1.0566 0 0 1 38 468)"/><path d="M7.83958 33.3458 9.38542 31.8C7.69234 30.0437 7.69234 27.2626 9.38542 25.5063L7.83958 23.9604C5.26307 26.5584 5.26307 30.7478 7.83958 33.3458Z" transform="matrix(1.0566 0 0 1 38 468)"/><path d="M4.74792 36.4375 6.29375 34.8917C2.8483 31.4663 2.83198 25.8965 6.25731 22.451 6.2694 22.4388 6.28155 22.4267 6.29375 22.4146L4.74792 20.8687C0.448725 25.1072 0.399468 32.0283 4.6379 36.3275 4.67431 36.3644 4.71098 36.4011 4.74792 36.4375Z" transform="matrix(1.0566 0 0 1 38 468)"/><path d="M44.9948 33.3458 43.449 31.8C45.142 30.0437 45.142 27.2626 43.449 25.5063L44.9948 23.9604C47.5713 26.5584 47.5713 30.7478 44.9948 33.3458Z" transform="matrix(1.0566 0 0 1 38 468)"/><path d="M48.0865 36.4375 46.5406 34.8917C49.9861 31.4663 50.0024 25.8965 46.5771 22.451 46.565 22.4388 46.5528 22.4267 46.5406 22.4146L48.0865 20.8687C52.3856 25.1072 52.4349 32.0283 48.1965 36.3275 48.16 36.3644 48.1234 36.4011 48.0865 36.4375Z" transform="matrix(1.0566 0 0 1 38 468)"/></g></svg>