<svg width="96" height="96" xmlns="http://www.w3.org/2000/svg" xmlns:xlink="http://www.w3.org/1999/xlink" xml:space="preserve" overflow="hidden"><g transform="translate(-208 -72)"><path d="M256 86.328 264.1 110.643 264.556 112.011 290.656 112.011 271.689 128.511 270.715 129.358 271.086 130.595 278.446 155.133 257.137 140.375 256 139.587 254.861 140.375 233.553 155.129 240.913 130.591 241.284 129.354 240.31 128.507 221.343 112.007 247.443 112.007 247.899 110.639ZM246 110.011 216 110.011 239 130.011 230 160.025 256 142.02 282 160.025 273 130.016 296 110.016 266 110.016 256 80Z"/></g></svg>