<svg width="51" height="48" xmlns="http://www.w3.org/2000/svg" xmlns:xlink="http://www.w3.org/1999/xlink" xml:space="preserve" overflow="hidden"><g transform="translate(-249 -32)"><path d="M3.2835 25.979 6.528 29.223 9 26.882 9 42.988 21.5 42.993 21.5 30.5085 26.5 30.5085 26.5 42.995 39 43 39 26.861 41.4845 29.211 44.7165 25.9795 24 6.3ZM38 42 27.5 41.9955 27.5 29.5085 20.5 29.5085 20.5 41.9925 10 41.9885 10 25.935 24 12.677 38 25.9155ZM6.547 27.828 4.7165 26 24 7.678 43.2835 26 41.465 27.816 24 11.3Z" transform="matrix(1.0625 0 0 1 249 32)"/></g></svg>