<svg width="42" height="44" xmlns="http://www.w3.org/2000/svg" xmlns:xlink="http://www.w3.org/1999/xlink" xml:space="preserve" overflow="hidden"><g transform="translate(-119 -435)"><path d="M19.0312 16.6298C16.615 12.1663 11.0379 10.5066 6.57431 12.9229 2.11078 15.3391 0.451124 20.9163 2.86737 25.3798 5.2836 29.8434 10.8608 31.503 15.3243 29.0868 16.8937 28.2372 18.1817 26.9492 19.0312 25.3798L21.875 25.3798 23.625 23.6298 25.375 25.3798 28.2188 22.5361 31.0625 25.3798 33.9062 22.5361 36.75 25.3798 40.25 21.0048 36.75 16.6298ZM36.6782 24.0717 34.5266 21.9187 33.9062 21.3001 33.2889 21.9187 31.0625 24.1448 28.8391 21.9187 28.2188 21.3001 27.6014 21.9187 25.375 24.1448 24.2449 23.0125 23.625 22.3943 23.0072 23.0125 21.5136 24.5066 18.5128 24.5066 18.2639 24.9629C16.0783 29.0017 11.0323 30.5041 6.99344 28.3185 2.95458 26.1329 1.45222 21.0869 3.63784 17.0481 5.82343 13.0092 10.8694 11.5068 14.9082 13.6924 16.329 14.4613 17.4951 15.6273 18.2639 17.0481L18.5128 17.5044 36.3313 17.5044 37.7269 19.25 20.125 19.25 20.125 20.125 38.4269 20.125 39.1313 21.0057Z" transform="matrix(1 0 0 1.04762 119 435)"/><path d="M7 18.3803C5.55026 18.3803 4.375 19.5555 4.375 21.0053 4.375 22.455 5.55026 23.6303 7 23.6303 8.44974 23.6303 9.625 22.455 9.625 21.0053 9.62045 19.5574 8.44786 18.3848 7 18.3803ZM7 22.7553C6.03352 22.7553 5.25 21.9717 5.25 21.0053 5.25 20.0388 6.03352 19.2553 7 19.2553 7.96648 19.2553 8.75 20.0388 8.75 21.0053 8.74926 21.9716 7.96639 22.7551 7 22.7566Z" transform="matrix(1 0 0 1.04762 119 435)"/></g></svg>