<svg width="39" height="40" xmlns="http://www.w3.org/2000/svg" xmlns:xlink="http://www.w3.org/1999/xlink" xml:space="preserve" overflow="hidden"><g transform="translate(-118 -324)"><path d="M4.0625 8.53125 4.0625 30.4688 34.9375 30.4688 34.9375 8.53125ZM20.3621 22.5322C19.8851 23.0063 19.1149 23.0063 18.6379 22.5322L5.45634 9.35066C5.45476 9.34907 5.4548 9.34647 5.45638 9.34493 5.45716 9.3442 5.45813 9.34375 5.45919 9.34375L33.5408 9.34375C33.543 9.34379 33.5448 9.34562 33.5448 9.34785 33.5448 9.34891 33.5444 9.34993 33.5437 9.35066ZM14.4568 19.5 4.88191 29.0749C4.88032 29.0765 4.87772 29.0765 4.87618 29.0749 4.87545 29.0741 4.875 29.0731 4.875 29.0721L4.875 9.92794C4.87504 9.9257 4.87687 9.92392 4.8791 9.92392 4.88016 9.92396 4.88118 9.92436 4.88191 9.92509ZM15.0312 20.0744 18.0635 23.1067C18.8567 23.9001 20.1428 23.9002 20.9361 23.1071 20.9363 23.1069 20.9364 23.1068 20.9365 23.1067L23.9688 20.0744 33.5437 29.6493C33.5452 29.6509 33.5452 29.6535 33.5436 29.6551 33.5428 29.6558 33.5419 29.6562 33.5408 29.6562L5.45919 29.6562C5.45695 29.6562 5.45517 29.6544 5.45517 29.6521 5.45521 29.6511 5.45561 29.6501 5.45634 29.6493ZM24.5432 19.5 34.1181 9.92509C34.1197 9.92351 34.1223 9.92355 34.1238 9.92513 34.1246 9.92591 34.125 9.92688 34.125 9.92794L34.125 29.0721C34.125 29.0743 34.1231 29.0761 34.1209 29.0761 34.1198 29.076 34.1188 29.0756 34.1181 29.0749Z" transform="matrix(1 0 0 1.02564 118 324)"/></g></svg>