<svg width="47" height="44" xmlns="http://www.w3.org/2000/svg" xmlns:xlink="http://www.w3.org/1999/xlink" xml:space="preserve" overflow="hidden"><g transform="translate(-548 -29)"><path d="M22 7.33333C25.5438 7.33333 28.4167 10.2062 28.4167 13.75 28.4167 17.2938 25.5438 20.1667 22 20.1667 18.4562 20.1667 15.5833 17.2938 15.5833 13.75 15.5869 10.2076 18.4576 7.33686 22 7.33333M22 6.41667C17.9499 6.41667 14.6667 9.69989 14.6667 13.75 14.6667 17.8001 17.9499 21.0833 22 21.0833 26.0501 21.0833 29.3333 17.8001 29.3333 13.75 29.3333 9.69989 26.0501 6.41667 22 6.41667Z" transform="matrix(1.06818 0 0 1 548 29)"/><path d="M36.6667 37.5833 35.75 37.5833 35.75 30.4792C35.7282 29.5056 35.2695 28.5935 34.501 27.9955 32.4909 26.4531 30.1894 25.3335 27.7351 24.7042 25.8769 24.1324 23.9442 23.8389 22 23.8333 20.0564 23.8671 18.126 24.1599 16.2598 24.7042 13.8312 25.4155 11.5398 26.5311 9.482 28.0042 8.72126 28.6029 8.26911 29.5113 8.25 30.4792L8.25 37.5833 7.33333 37.5833 7.33333 30.4792C7.35607 29.2273 7.94122 28.0522 8.9265 27.2795 11.0768 25.736 13.4727 24.5672 16.0128 23.8228 17.9593 23.2557 19.9728 22.9509 22 22.9167 24.0314 22.9217 26.0508 23.2273 27.9927 23.8237 30.5637 24.4862 32.9738 25.6627 35.0776 27.2823 36.0609 28.0549 36.6445 29.2288 36.6667 30.4792Z" transform="matrix(1.06818 0 0 1 548 29)"/></g></svg>