<svg width="96" height="96" xmlns="http://www.w3.org/2000/svg" xmlns:xlink="http://www.w3.org/1999/xlink" xml:space="preserve" overflow="hidden"><g transform="translate(-910 -70)"><path d="M974 100C974 108.837 966.837 116 958 116 949.163 116 942 108.837 942 100 942 91.1634 949.163 84 958 84 966.837 84 974 91.1634 974 100Z"/><path d="M990 152 990 136C990 133.6 988.8 131.2 986.8 129.6 982.4 126 976.8 123.6 971.2 122 967.2 120.8 962.8 120 958 120 953.6 120 949.2 120.8 944.8 122 939.2 123.6 933.6 126.4 929.2 129.6 927.2 131.2 926 133.6 926 136L926 152 990 152Z"/></g></svg>