<svg width="51" height="48" xmlns="http://www.w3.org/2000/svg" xmlns:xlink="http://www.w3.org/1999/xlink" xml:space="preserve" overflow="hidden"><g transform="translate(-329 -28)"><path d="M35.65 30.95C34.55 29.85 32.75 29.9 31.4 30.95L29.3 28.85C34.75 22.95 34.4 13.8 28.5 8.35 22.6 2.9 13.5 3.3 8.05 9.2 2.6 15.1 3 24.25 8.85 29.7 14.45 34.9 23.1 34.85 28.65 29.6L30.75 31.7C30.3 32.25 30.05 32.95 29.95 33.65 29.85 34.5 30.15 35.35 30.75 35.95L37.8 43C38.35 43.5 39.05 43.8 39.8 43.8 40.8 43.8 41.7 43.4 42.4 42.7 43.05 42.1 43.45 41.25 43.5 40.35 43.6 39.5 43.3 38.65 42.7 38.05L35.65 30.95ZM9.2 28.55C3.95 23.3 3.95 14.75 9.2 9.45 14.45 4.15 23 4.2 28.3 9.45 33.6 14.7 33.55 23.25 28.3 28.55 25.75 31.1 22.35 32.5 18.75 32.5 15.2 32.5 11.75 31.1 9.2 28.55ZM41.65 41.9C40.7 42.85 39.25 43 38.45 42.2L31.45 35.2C31.05 34.8 30.9 34.25 30.95 33.7 31 33.05 31.3 32.45 31.8 32 32.3 31.5 33 31.2 33.7 31.15 34.2 31.15 34.65 31.3 35 31.65L42 38.7C42.4 39.1 42.55 39.65 42.5 40.2 42.4 40.85 42.15 41.45 41.65 41.9 41.65 41.9 41.65 41.9 41.65 41.9Z" transform="matrix(1.0625 0 0 1 329 28)"/></g></svg>