<svg width="52" height="50" xmlns="http://www.w3.org/2000/svg" xmlns:xlink="http://www.w3.org/1999/xlink" xml:space="preserve" overflow="hidden"><g transform="translate(-323 -33)"><path d="M44.5312 39.375 38.0208 32.8646C37.1354 31.9792 35.9375 31.6667 34.7917 31.875L32.5 29.5833C34.5312 26.9792 35.7292 23.6458 35.7292 20.1042 35.7292 11.5104 28.6979 4.47917 20.1042 4.47917 11.5104 4.47917 4.47917 11.5104 4.47917 20.1042 4.47917 28.6979 11.5104 35.7292 20.1042 35.7292 23.6458 35.7292 26.9271 34.5312 29.5833 32.5L31.875 34.7917C31.6667 35.9375 31.9792 37.1354 32.8646 38.0208L39.375 44.5312C40.1042 45.2604 41.0417 45.625 41.9792 45.625 42.9167 45.625 43.8542 45.2604 44.5833 44.5312 45.9375 43.0729 45.9375 40.7812 44.5312 39.375ZM20.0521 32.5521C13.1771 32.5521 7.55208 26.9271 7.55208 20.0521 7.55208 13.1771 13.1771 7.55208 20.0521 7.55208 26.9271 7.55208 32.5521 13.1771 32.5521 20.0521 32.5521 26.9271 26.9271 32.5521 20.0521 32.5521Z" transform="matrix(1.04 0 0 1 323 33)"/></g></svg>