<svg width="72" height="68" xmlns="http://www.w3.org/2000/svg" xmlns:xlink="http://www.w3.org/1999/xlink" xml:space="preserve" overflow="hidden"><g transform="translate(-31 -132)"><path d="M36.8383 11.351 34.005 7.10104 31.1716 11.351 34.005 15.601ZM34.005 9.65458 35.1383 11.351 34.005 13.051 32.8716 11.351Z" transform="matrix(1.05882 0 0 1 31 132)"/><path d="M34.005 17.7282 23.9466 34.5907 12.0466 29.0658 16.2966 47.4874 16.2966 60.9167 51.7133 60.9167 51.7133 47.486 55.9633 29.0643 44.0633 34.5893ZM50.2973 59.5 17.714 59.5 17.714 53.8333 50.2973 53.8333 50.2973 59.5ZM53.9325 31.5704 50.3342 47.1679 50.2973 47.3252 50.2973 52.4167 17.714 52.4167 17.714 47.3252 17.6779 47.1679 14.0774 31.5704 23.3495 35.8757 24.5083 36.414 25.1628 35.3168 34.005 20.4935 42.8471 35.3168 43.5016 36.414 44.6604 35.8757Z" transform="matrix(1.05882 0 0 1 31 132)"/><path d="M4.46604 21.483 5.45771 26.4414 10.416 27.433 9.42437 22.4747ZM6.66187 25.2372 6.27229 23.2872 8.22092 23.6767 8.6105 25.6268Z" transform="matrix(1.05882 0 0 1 31 132)"/><path d="M58.5855 22.4754 57.5939 27.4337 62.5522 26.4421 63.5439 21.4837ZM61.348 25.2379 59.3994 25.6275 59.7897 23.6775 61.7383 23.2879Z" transform="matrix(1.05882 0 0 1 31 132)"/></g></svg>