<svg width="37" height="37" xmlns="http://www.w3.org/2000/svg" xmlns:xlink="http://www.w3.org/1999/xlink" xml:space="preserve" overflow="hidden"><g transform="translate(-107 -668)"><path d="M140.416 695.218 135.097 689.899C134.448 689.24 133.387 689.23 132.728 689.879 132.721 689.886 132.714 689.893 132.707 689.899L129.855 692.867C129.531 693.175 129.023 693.175 128.699 692.867L119.141 683.344C118.832 683.02 118.832 682.511 119.141 682.188L122.108 679.258C122.768 678.609 122.777 677.548 122.128 676.888 122.121 676.882 122.115 676.875 122.108 676.869L116.79 671.584C116.484 671.273 116.069 671.093 115.633 671.083 115.186 671.092 114.759 671.272 114.439 671.584L111.394 674.629C110.626 675.339 110.169 676.322 110.122 677.366 110.068 679.079 110.37 680.785 111.008 682.376 111.642 683.799 112.417 685.154 113.321 686.423 116.461 691.159 120.446 695.277 125.076 698.572 125.847 699.144 126.658 699.659 127.504 700.114 129.419 701.121 131.515 701.737 133.671 701.925 133.794 701.935 133.918 701.94 134.041 701.94 135.392 701.935 136.682 701.372 137.602 700.383L140.377 697.608C140.696 697.292 140.877 696.862 140.879 696.413 140.891 695.969 140.724 695.538 140.416 695.218ZM114.982 672.132C115.158 671.963 115.39 671.864 115.633 671.854 115.866 671.865 116.085 671.964 116.247 672.132L121.565 677.412C121.924 677.76 121.933 678.333 121.585 678.692 121.58 678.698 121.574 678.703 121.569 678.708L120.482 679.781 113.908 673.207ZM137.059 699.839 137.048 699.849 137.039 699.86C136.265 700.693 135.18 701.167 134.042 701.17 133.939 701.17 133.835 701.166 133.726 701.157 131.676 700.977 129.683 700.39 127.862 699.431 127.053 698.996 126.277 698.503 125.539 697.955L125.53 697.949 125.522 697.943C120.963 694.703 117.041 690.65 113.954 685.987 113.083 684.768 112.337 683.465 111.726 682.097 111.274 680.829 110.777 679.156 110.893 677.42L110.893 677.408 110.893 677.397C110.934 676.554 111.305 675.762 111.925 675.19L111.933 675.183 111.939 675.176 113.363 673.752 119.933 680.322 118.596 681.644C117.986 682.269 117.986 683.266 118.596 683.891L128.154 693.411C128.783 694.025 129.789 694.02 130.412 693.401L131.686 692.075 138.254 698.643ZM139.834 697.064 138.799 698.099 132.22 691.519 133.254 690.443C133.601 690.084 134.174 690.075 134.532 690.422 134.539 690.429 134.546 690.436 134.553 690.443L139.872 695.762C140.202 696.138 140.185 696.705 139.833 697.062Z"/></g></svg>